<svg xmlns="http://www.w3.org/2000/svg" viewBox="0 0 122.76 94.13"><defs><style>.cls-1{fill:#a30fe9;}</style></defs><title>Bike</title><g id="Layer_2" data-name="Layer 2"><g id="Layer_2-2" data-name="Layer 2"><path class="cls-1" d="M93,34.82H81.53V17.18a9,9,0,0,0-9-9H43.46a10,10,0,0,0-10,10v.43a12.22,12.22,0,0,0,1.6,5.9,13.29,13.29,0,0,0,2.74,3.9l17.89,17.9V69.77a5.57,5.57,0,0,0,4.89,5.62A5.41,5.41,0,0,0,66.52,70V41.78a.41.41,0,0,0-.41-.41,1,1,0,0,0-.29-.71L52.33,27.18A.92.92,0,0,1,53,25.61H71.05V40.3a5,5,0,0,0,5,5h17.2a5.25,5.25,0,0,0,5.22-5.75A5.4,5.4,0,0,0,93,34.82Z"/><path class="cls-1" d="M27,40.15a27,27,0,1,0,27,27A27,27,0,0,0,27,40.15Zm0,48a21,21,0,1,1,21-21A21,21,0,0,1,27,88.13Z"/><path class="cls-1" d="M107.27,42.74c-1.77-.22-3.8-.09-3.89,2.2a4.14,4.14,0,0,0,1.8,3.45,21,21,0,1,1-26.57,6.7c.41-1.37.38-2.88-.83-3.75a3.23,3.23,0,0,0-4,.27,27,27,0,1,0,33.54-8.87Z"/><circle class="cls-1" cx="92.94" cy="10.72" r="10.72"/></g></g></svg>