<svg xmlns="http://www.w3.org/2000/svg" viewBox="0 0 2462.44 1272.25"><defs><style>.cls-1{fill:#9d9fa2;stroke:#9d9fa2;stroke-miterlimit:10;stroke-width:19px;}</style></defs><title>Empty Scale</title><g id="Layer_2" data-name="Layer 2"><g id="Layer_3" data-name="Layer 3"><path class="cls-1" d="M1199.69,9.5h63.05a0,0,0,0,1,0,0v161A31.53,31.53,0,0,1,1231.22,202h0a31.53,31.53,0,0,1-31.53-31.53V9.5A0,0,0,0,1,1199.69,9.5Z"/><path class="cls-1" d="M851.9,64.58H915a0,0,0,0,1,0,0v161a31.53,31.53,0,0,1-31.53,31.53h0a31.53,31.53,0,0,1-31.53-31.53v-161A0,0,0,0,1,851.9,64.58Z" transform="translate(-6.46 280.87) rotate(-18)"/><path class="cls-1" d="M538.15,224.45h63.05a0,0,0,0,1,0,0v161a31.53,31.53,0,0,1-31.53,31.53h0a31.53,31.53,0,0,1-31.53-31.53v-161a0,0,0,0,1,0,0Z" transform="translate(-79.7 396.1) rotate(-36)"/><path class="cls-1" d="M289.16,473.44h63.05a0,0,0,0,1,0,0v161a31.53,31.53,0,0,1-31.53,31.53h0a31.53,31.53,0,0,1-31.53-31.53v-161a0,0,0,0,1,0,0Z" transform="translate(-328.69 494.28) rotate(-54)"/><path class="cls-1" d="M129.3,787.18h63.05a0,0,0,0,1,0,0v161a31.53,31.53,0,0,1-31.53,31.53h0a31.53,31.53,0,0,1-31.53-31.53v-161A0,0,0,0,1,129.3,787.18Z" transform="translate(-729.06 763.39) rotate(-72)"/><path class="cls-1" d="M74.22,1135h63.05a0,0,0,0,1,0,0v161a31.53,31.53,0,0,1-31.53,31.53h0a31.53,31.53,0,0,1-31.53-31.53V1135A0,0,0,0,1,74.22,1135Z" transform="translate(-1125.47 1336.96) rotate(-90)"/><path class="cls-1" d="M2325.16,1135h63.05a0,0,0,0,1,0,0v161a31.53,31.53,0,0,1-31.53,31.53h0a31.53,31.53,0,0,1-31.53-31.53V1135A0,0,0,0,1,2325.16,1135Z" transform="translate(3587.91 -1125.47) rotate(90)"/><path class="cls-1" d="M2270.08,787.18h63.05a0,0,0,0,1,0,0v161a31.53,31.53,0,0,1-31.53,31.53h0a31.53,31.53,0,0,1-31.53-31.53v-161a0,0,0,0,1,0,0Z" transform="translate(2430.56 -1578.52) rotate(72)"/><path class="cls-1" d="M2110.22,473.44h63.05a0,0,0,0,1,0,0v161a31.53,31.53,0,0,1-31.53,31.53h0a31.53,31.53,0,0,1-31.53-31.53v-161a0,0,0,0,1,0,0Z" transform="translate(1343.74 -1497.88) rotate(54)"/><path class="cls-1" d="M1861.23,224.45h63.05a0,0,0,0,1,0,0v161a31.53,31.53,0,0,1-31.53,31.53h0a31.53,31.53,0,0,1-31.53-31.53v-161A0,0,0,0,1,1861.23,224.45Z" transform="translate(549.98 -1051.29) rotate(36)"/><path class="cls-1" d="M1547.48,64.58h63.05a0,0,0,0,1,0,0v161A31.53,31.53,0,0,1,1579,257.08h0a31.53,31.53,0,0,1-31.53-31.53v-161a0,0,0,0,1,0,0Z" transform="translate(126.98 -480.07) rotate(18)"/></g></g></svg>