<svg id="Layer_1" data-name="Layer 1" xmlns="http://www.w3.org/2000/svg" viewBox="0 0 318.56 698.3"><defs><style>.cls-1{fill:#fff;}</style></defs><title>Kalorie Logo White</title><path class="cls-1" d="M323.46,47.64a104,104,0,0,1,28,10A106.24,106.24,0,0,1,384,84.41a104.56,104.56,0,0,1,18.25,32.74c7.07,21.83,4.3,40.28,2.89,49.66a154.18,154.18,0,0,1-8.69,31.68c-1,2.53-1.88,4.61-2.53,6.08q-91.71,173-183.44,346.08a52,52,0,0,0-7.26,22.9,59.09,59.09,0,0,0,4,23.91c7.72,18.76,26.08,27.56,37.08,32.83a105.79,105.79,0,0,0,38.18,9.62,85.88,85.88,0,0,0,58.79-16.41c13.34-9.64,20.28-20.22,26.79-30.13a157.25,157.25,0,0,0,19.66-43.6c3.18-11.36,7.32-26.65,5.82-46.89-.7-9.32-2.27-27.71-13.74-46.86-7.54-12.58-16.37-20.51-25.68-28.88-6.28-5.64-13.36-11.93-24.12-17.87-6.91-3.82-10.21-4.66-27.4-11.48-13.63-5.41-24.25-9.91-26.49-10.88-28.68-12.36-49-33-55.29-39.79-9.29-10-22.85-24.55-31.19-48.1-14.17-40-2.33-74.95-.24-80.84,4.33-12.21,16.1-39,44.07-57.89,19.77-13.32,38.85-16.73,50.07-18.62,24.12-4.06,43.2-.79,53.17,1a178.86,178.86,0,0,1,41,12.9c11.11,4.79,24.38,10.51,39.18,22.23,7.46,5.9,21.45,17.18,32.84,36.95,4.42,7.65,12.78,22.52,15,43.72,2.26,22.11-3.4,39.5-6.18,47.78a124.53,124.53,0,0,1-6,14.62Q368.57,478.32,284.65,635.75c-5.75,11.17-10.57,20.07-13.95,26.19-3.94,7.13-5.38,9.53-7.2,14.08-2.3,5.74-5.47,13.64-5.57,24.3,0,1.84,0,16.17,7.79,29.14a69.49,69.49,0,0,0,10,12.53c1.72,1.7,3.25,3,4.35,4a74.4,74.4,0,0,1-13.87-4A82.78,82.78,0,0,1,249,732.45a101.53,101.53,0,0,1-18.68-17.39c-4.85-5.59-11.21-12.92-16.38-23.69-7.5-15.63-8.22-29.58-8.61-39.18A124.52,124.52,0,0,1,210.47,612a144.61,144.61,0,0,1,10.58-27.22l180-339.2a51.45,51.45,0,0,0,4.74-10.3,52.44,52.44,0,0,0,2.53-19.84,54.36,54.36,0,0,0-6.13-21.08,60.83,60.83,0,0,0-14.75-17.8c-8.94-7.48-17.31-10.38-26.92-13.72a118.73,118.73,0,0,0-37.15-6.72,104.69,104.69,0,0,0-22.6,2.14c-6.57,1.43-17.8,4-29.34,12-5.54,3.83-9,7.47-15.95,14.77a139.49,139.49,0,0,0-15.31,18.38,127.09,127.09,0,0,0-14,27,152.5,152.5,0,0,0-8,28.92c-1.45,8.37-3.16,18.17-2.27,30.46.48,6.79,2.22,27.36,16.26,47.46,8.5,12.17,17.92,19,27.71,26.13a167.06,167.06,0,0,0,29.26,16.83c20.47,9.56,23.18,6.84,40.65,15.78a183.26,183.26,0,0,1,29.75,19.34,210.87,210.87,0,0,1,20.24,17.94c8.12,8.19,19,19.28,28.81,36.26,5.28,9.14,13.23,23.14,16.8,43.46a120,120,0,0,1-.06,41.54,126.42,126.42,0,0,1-11.78,34.68c-3.74,7.7-8.21,16.76-16.78,26.67a107.22,107.22,0,0,1-28.42,23A133,133,0,0,1,327.22,654a142.2,142.2,0,0,1-46.74,1c-18.2-2.59-31-8-44.15-13.52-9.7-4.09-20.66-8.77-33.64-17.64-8-5.46-20-13.8-31.44-28.37a110,110,0,0,1-21.34-41.71c-6.95-27-1.12-49.19,1.38-58.25A121.06,121.06,0,0,1,164,465.85L324.68,165.36c4.63-8.62,9.93-18.62,15.75-29.8,6.75-13,9.17-17.9,11.1-25.42,1.87-7.25,3.75-14.58,2.07-23.82-2.28-12.58-9.72-20.82-14.11-25.68A67.26,67.26,0,0,0,323.46,47.64Z" transform="translate(-146.62 -47.64)"/></svg>