<svg xmlns="http://www.w3.org/2000/svg" viewBox="0 0 58.44 128.11"><defs><style>.cls-1{fill:#fff;}</style></defs><title>Kalorie white</title><g id="Layer_2" data-name="Layer 2"><g id="Layer_9" data-name="Layer 9"><path class="cls-1" d="M32.44,0a19.31,19.31,0,0,1,5.15,1.83,19.51,19.51,0,0,1,6,4.92,19,19,0,0,1,3.35,6,19,19,0,0,1,.53,9.11,28.7,28.7,0,0,1-1.59,5.82c-.18.46-.35.84-.47,1.11L11.72,92.28a9.12,9.12,0,0,0-.91,2,8.87,8.87,0,0,0-.42,2.17,10.9,10.9,0,0,0,.73,4.39c1.41,3.44,4.78,5.06,6.8,6a19.24,19.24,0,0,0,7,1.77,15.72,15.72,0,0,0,10.78-3,18.94,18.94,0,0,0,4.92-5.53,29.14,29.14,0,0,0,3.6-8,23.32,23.32,0,0,0,1.07-8.6,18.91,18.91,0,0,0-2.52-8.6,22.21,22.21,0,0,0-4.71-5.3,22.6,22.6,0,0,0-4.43-3.27,40.74,40.74,0,0,0-5-2.11c-2.5-1-4.45-1.82-4.86-2a31.64,31.64,0,0,1-10.15-7.3,24.39,24.39,0,0,1-5.72-8.82,22.86,22.86,0,0,1,0-14.83,21.52,21.52,0,0,1,8.08-10.62,22.2,22.2,0,0,1,9.19-3.42,27.42,27.42,0,0,1,9.75.19,32.73,32.73,0,0,1,7.52,2.36,29.23,29.23,0,0,1,7.19,4.08,23,23,0,0,1,6,6.78,19.59,19.59,0,0,1,2.74,8,20.25,20.25,0,0,1-1.14,8.77,24,24,0,0,1-1.09,2.68L25.32,107.9c-1.05,2-1.94,3.68-2.56,4.8a22.85,22.85,0,0,0-1.32,2.58,11.78,11.78,0,0,0-1,4.46,11,11,0,0,0,1.43,5.35,13.27,13.27,0,0,0,1.83,2.3c.32.31.6.55.8.72a13.55,13.55,0,0,1-2.54-.72,15.51,15.51,0,0,1-3.16-1.75,19.11,19.11,0,0,1-3.43-3.19,18.84,18.84,0,0,1-3-4.35,17.22,17.22,0,0,1-1.58-7.19,23.1,23.1,0,0,1,.94-7.38,26.49,26.49,0,0,1,1.95-5l33-62.23a9.33,9.33,0,0,0,.87-1.89A9.56,9.56,0,0,0,48,30.78a10.08,10.08,0,0,0-1.13-3.87,11.18,11.18,0,0,0-2.7-3.26,14.14,14.14,0,0,0-4.94-2.52,21.84,21.84,0,0,0-6.82-1.23,19.48,19.48,0,0,0-4.14.39,14.41,14.41,0,0,0-5.39,2.19A17.91,17.91,0,0,0,20,25.19a24.81,24.81,0,0,0-2.81,3.37,23.19,23.19,0,0,0-2.56,5,27.28,27.28,0,0,0-1.46,5.31,21.53,21.53,0,0,0-.42,5.58,17.21,17.21,0,0,0,3,8.71,19.8,19.8,0,0,0,5.08,4.8A30.49,30.49,0,0,0,26.15,61c3.76,1.76,4.26,1.26,7.46,2.9a33.05,33.05,0,0,1,5.46,3.55,37.4,37.4,0,0,1,3.71,3.29,31.36,31.36,0,0,1,5.29,6.65,23.37,23.37,0,0,1,3.08,8,22.18,22.18,0,0,1,0,7.62A23.13,23.13,0,0,1,49,99.35a21,21,0,0,1-3.08,4.89,19.74,19.74,0,0,1-5.22,4.22,24.13,24.13,0,0,1-7.55,2.79,26,26,0,0,1-8.57.18,30,30,0,0,1-8.1-2.48,32.59,32.59,0,0,1-6.17-3.23,24.23,24.23,0,0,1-5.77-5.21A19.58,19.58,0,0,1,.86,82.17a21.7,21.7,0,0,1,2.33-5.44L32.67,21.6c.85-1.58,1.82-3.42,2.89-5.47a20.48,20.48,0,0,0,2-4.66A9.42,9.42,0,0,0,38,7.1a9.38,9.38,0,0,0-2.59-4.71A12,12,0,0,0,32.44,0Z"/></g></g></svg>