<svg xmlns="http://www.w3.org/2000/svg" viewBox="0 0 587.59 587.59"><defs><style>.cls-1{fill:#fff;}</style></defs><title>Living healthy</title><g id="Layer_2" data-name="Layer 2"><g id="Layer_4" data-name="Layer 4"><path class="cls-1" d="M293.8,0C131.54,0,0,131.54,0,293.8S131.54,587.59,293.8,587.59,587.59,456.05,587.59,293.8,456.05,0,293.8,0Zm56.05,161.14a44.12,44.12,0,1,1,88.23,0V240a44.12,44.12,0,1,1-88.23,0Zm-203.07,0a44.12,44.12,0,0,1,88.24,0V240a44.12,44.12,0,0,1-88.24,0ZM467.3,382a72.6,72.6,0,0,1-4.63,16.55c-4.83,11.79-8.89,21.7-17.59,35A186.55,186.55,0,0,1,417.76,466c-38.19,35.54-86.85,42.91-99.44,44.65-37.41,5.2-65.92-2.19-75.37-4.92a186.77,186.77,0,0,1-48-21.68c-10.61-6.74-26.07-16.75-42.25-36.12,0,0-19-22.68-27.9-48.93a86.12,86.12,0,0,1-4.45-21,47.17,47.17,0,0,1,.3-14.93c.28-1.47.78-3.55,2.11-4.27.56-.3,1.15-.31,2.57.09a22.25,22.25,0,0,1,5.13,2.22c11.34,4.06,20.84,6.94,27.55,8.85,10.14,2.89,44.84,12.36,92.23,15.94,33.63,2.53,58.42,1,80.7-.36,0,0,32.22-2,95.42-14,0,0,24.8-4.72,30.29-9.54a11.71,11.71,0,0,1,5.92-2.91c1.29-.35,2.08-.37,2.77.11,1.46,1,1.67,3.79,1.76,5.25C467.68,373.3,468,377.72,467.3,382Z"/></g></g></svg>