<svg xmlns="http://www.w3.org/2000/svg" viewBox="0 0 588.24 588.24"><defs><style>.cls-1{fill:#fff;}</style></defs><title>Lose Weight</title><g id="Layer_2" data-name="Layer 2"><g id="Layer_4" data-name="Layer 4"><path class="cls-1" d="M435.7,36.27v.17a20,20,0,1,1-38.62-7.53h0l0-.07a18.17,18.17,0,0,1,1-2.13l3.15-6.56A293.14,293.14,0,0,0,294.12,0C131.68,0,0,131.68,0,294.12S131.68,588.24,294.12,588.24,588.24,456.56,588.24,294.12C588.24,183,526.62,86.3,435.7,36.27ZM62,235.67a20,20,0,0,1-18.57-27.58h0l0-.07a19.85,19.85,0,0,1,1-2.13l13.85-28.78a4.07,4.07,0,0,1,7.35,0l13.86,28.81a21.74,21.74,0,0,1,1,2.06l0,.11h0A20,20,0,0,1,62,235.67Zm374.35-100.5a31,31,0,0,1,0,43.9l-27.76,27.76,24.56,24.56a31,31,0,0,1,0,43.9h0a31,31,0,0,1-43.91,0L347.91,234c-.73-.73-1.41-1.5-2.06-2.28a30.45,30.45,0,0,1-3.26-2.79h0a31.06,31.06,0,0,1,0-43.91l49.84-49.83A31,31,0,0,1,436.33,135.17Zm-113-51.29,0,0a12.25,12.25,0,0,1,.7-1.46l9.44-19.63a2.78,2.78,0,0,1,5,0L348,82.4a13,13,0,0,1,.68,1.41l0,.07h0a13.67,13.67,0,1,1-25.34,0Zm-119-35.73,0-.07a24.5,24.5,0,0,1,1.11-2.31l14.94-31.06a4.4,4.4,0,0,1,7.94,0l15,31.1A21.77,21.77,0,0,1,244.39,48l.05.11h0a21.65,21.65,0,1,1-40.09,0ZM146.94,161.32a44.17,44.17,0,1,1,88.34,0v78.9a44.17,44.17,0,0,1-88.34,0ZM467.81,382.38A72.17,72.17,0,0,1,463.18,399c-4.84,11.8-8.9,21.72-17.61,35a186.45,186.45,0,0,1-27.35,32.56c-38.24,35.58-87,43-99.55,44.71-37.45,5.2-66-2.2-75.45-4.93a187.2,187.2,0,0,1-48-21.7c-10.62-6.75-26.1-16.77-42.3-36.16,0,0-19-22.71-27.94-49a86.33,86.33,0,0,1-4.45-21,47.22,47.22,0,0,1,.3-14.94c.28-1.47.79-3.56,2.12-4.28.55-.3,1.14-.3,2.57.1a21.4,21.4,0,0,1,5.13,2.22c11.36,4.06,20.86,6.95,27.59,8.86,10.15,2.9,44.89,12.37,92.33,15.95,33.66,2.54,58.48,1,80.78-.35,0,0,32.26-2,95.53-14,0,0,24.83-4.72,30.32-9.55a11.72,11.72,0,0,1,5.93-2.92c1.29-.34,2.09-.37,2.78.12,1.46,1,1.66,3.79,1.76,5.25C468.19,373.71,468.48,378.13,467.81,382.38Zm50.63-149a22.39,22.39,0,0,1-20.76-30.83h0l0-.07a22.83,22.83,0,0,1,1.15-2.39l15.48-32.18a4.56,4.56,0,0,1,8.22,0l15.5,32.22a23.2,23.2,0,0,1,1.11,2.3l.06.12h0a22.39,22.39,0,0,1-20.76,30.83Z"/></g></g></svg>