<svg xmlns="http://www.w3.org/2000/svg" viewBox="0 0 2572.89 1319.64"><defs><style>.cls-1,.cls-2{fill:#fff;}.cls-1{opacity:0.4;}</style></defs><title>Overweight</title><g id="Layer_2" data-name="Layer 2"><g id="Layer_3" data-name="Layer 3"><path class="cls-1" d="M1286.44,1286.44,0,1289.17v-2.73C0,580.72,580.72,0,1286.44,0A1287.4,1287.4,0,0,1,2329.13,533Z"/><path class="cls-2" d="M1454.86,15h43.71a0,0,0,0,1,0,0V133.61a21.71,21.71,0,0,1-21.71,21.71h0a22,22,0,0,1-22-22V15a0,0,0,0,1,0,0Z" transform="translate(31.5 -229.96) rotate(9)"/><path class="cls-2" d="M1074.32,15H1118a0,0,0,0,1,0,0V133.61a21.71,21.71,0,0,1-21.71,21.71h0a22,22,0,0,1-22-22V15a0,0,0,0,1,0,0Z" transform="translate(0.18 172.53) rotate(-9)"/><path class="cls-2" d="M712.41,132.57h43.71a0,0,0,0,1,0,0V251.21a21.71,21.71,0,0,1-21.71,21.71h0a22,22,0,0,1-22-22V132.57a0,0,0,0,1,0,0Z" transform="translate(-12.01 355.45) rotate(-27)"/><path class="cls-2" d="M404.56,356.24h43.71a0,0,0,0,1,0,0V474.88a21.71,21.71,0,0,1-21.71,21.71h0a22,22,0,0,1-22-22V356.24A0,0,0,0,1,404.56,356.24Z" transform="translate(-176.63 426.41) rotate(-45)"/><path class="cls-2" d="M180.89,664.09H224.6a0,0,0,0,1,0,0V782.73a21.71,21.71,0,0,1-21.71,21.71h0a22,22,0,0,1-22-22V664.09a0,0,0,0,1,0,0Z" transform="translate(-543.54 581.56) rotate(-63)"/><path class="cls-2" d="M63.29,1026H107a0,0,0,0,1,0,0v118.64a21.71,21.71,0,0,1-21.71,21.71h0a22,22,0,0,1-22-22V1026A0,0,0,0,1,63.29,1026Z" transform="translate(-1010.85 1008.8) rotate(-81)"/><path class="cls-2" d="M2465.88,1026h43.71a0,0,0,0,1,0,0v118.64a21.71,21.71,0,0,1-21.71,21.71h0a22,22,0,0,1-22-22V1026A0,0,0,0,1,2465.88,1026Z" transform="translate(3181.25 -1532.41) rotate(81)"/><path class="cls-2" d="M2348.29,664.09H2392a0,0,0,0,1,0,0V782.73a21.71,21.71,0,0,1-21.71,21.71h0a22,22,0,0,1-22-22V664.09A0,0,0,0,1,2348.29,664.09Z" transform="translate(1948.36 -1710.9) rotate(63)"/><path class="cls-2" d="M2124.62,356.24h43.71a0,0,0,0,1,0,0V474.88a21.71,21.71,0,0,1-21.71,21.71h0a22,22,0,0,1-22-22V356.24A0,0,0,0,1,2124.62,356.24Z" transform="translate(930.21 -1392.89) rotate(45)"/><path class="cls-2" d="M1816.76,132.57h43.71a0,0,0,0,1,0,0V251.21a21.71,21.71,0,0,1-21.71,21.71h0a22,22,0,0,1-22-22V132.57A0,0,0,0,1,1816.76,132.57Z" transform="translate(292.44 -812.62) rotate(27)"/><path class="cls-2" d="M1253.25,0h66.4a0,0,0,0,1,0,0V170.69a32,32,0,0,1-32,32h-2.4a32,32,0,0,1-32-32V0A0,0,0,0,1,1253.25,0Z"/><path class="cls-2" d="M887,58h66.4a0,0,0,0,1,0,0V228.69a32,32,0,0,1-32,32H919a32,32,0,0,1-32-32V58a0,0,0,0,1,0,0Z" transform="translate(-4.2 292.17) rotate(-18)"/><path class="cls-2" d="M556.66,226.33h66.4a0,0,0,0,1,0,0V397a32,32,0,0,1-32,32h-2.4a32,32,0,0,1-32-32V226.33a0,0,0,0,1,0,0Z" transform="translate(-79.95 409.29) rotate(-36)"/><path class="cls-2" d="M294.48,488.52h66.4a0,0,0,0,1,0,0V659.2a32,32,0,0,1-32,32h-2.4a32,32,0,0,1-32-32V488.52A0,0,0,0,1,294.48,488.52Z" transform="matrix(0.59, -0.81, 0.81, 0.59, -342.13, 508.25)"/><path class="cls-2" d="M126.15,818.88h66.4a0,0,0,0,1,0,0V989.57a32,32,0,0,1-32,32h-2.4a32,32,0,0,1-32-32V818.88a0,0,0,0,1,0,0Z" transform="translate(-765.08 787.41) rotate(-72)"/><path class="cls-2" d="M68.15,1185.1h66.4a0,0,0,0,1,0,0v170.69a32,32,0,0,1-32,32h-2.4a32,32,0,0,1-32-32V1185.1A0,0,0,0,1,68.15,1185.1Z" transform="translate(-1185.1 1387.79) rotate(-90)"/><path class="cls-2" d="M2438.34,1185.1h66.4a0,0,0,0,1,0,0v170.69a32,32,0,0,1-32,32h-2.4a32,32,0,0,1-32-32V1185.1A0,0,0,0,1,2438.34,1185.1Z" transform="translate(3757.99 -1185.1) rotate(90)"/><path class="cls-2" d="M2380.34,818.88h66.4a0,0,0,0,1,0,0V989.57a32,32,0,0,1-32,32h-2.4a32,32,0,0,1-32-32V818.88A0,0,0,0,1,2380.34,818.88Z" transform="translate(2542.9 -1659.55) rotate(72)"/><path class="cls-2" d="M2212,488.52h66.4a0,0,0,0,1,0,0V659.2a32,32,0,0,1-32,32H2244a32,32,0,0,1-32-32V488.52a0,0,0,0,1,0,0Z" transform="translate(1402.71 -1573.26) rotate(54)"/><path class="cls-2" d="M1949.83,226.33h66.4a0,0,0,0,1,0,0V397a32,32,0,0,1-32,32h-2.4a32,32,0,0,1-32-32V226.33A0,0,0,0,1,1949.83,226.33Z" transform="translate(571.33 -1103.01) rotate(36)"/><path class="cls-2" d="M1619.46,58h66.4a0,0,0,0,1,0,0V228.69a32,32,0,0,1-32,32h-2.4a32,32,0,0,1-32-32V58A0,0,0,0,1,1619.46,58Z" transform="translate(130.13 -502.9) rotate(18)"/><circle class="cls-2" cx="1286.44" cy="1286.44" r="27.19"/><path class="cls-2" d="M1382.7,1289.38l525.27-462L1285.16,1145.9a89.52,89.52,0,1,0,97.54,143.48Z"/></g></g></svg>