<svg xmlns="http://www.w3.org/2000/svg" viewBox="0 0 1188.21 1178"><defs><style>.cls-1{fill:#00b39c;}</style></defs><title>Recipe arrow</title><g id="Layer_2" data-name="Layer 2"><g id="Layer_3" data-name="Layer 3"><path class="cls-1" d="M663.13,1153.1l500.18-500.18a84.72,84.72,0,0,0,24.84-62.27q.06-1.47.06-3h0c0-.54,0-1.09,0-1.63a84.85,84.85,0,0,0-14.35-48.17A94.27,94.27,0,0,0,1152.26,514L663.13,24.9a85,85,0,0,0-120.2,0h0a85,85,0,0,0,0,120.2L892.06,494.24H93.45A93.45,93.45,0,0,0,0,587.68H0a93.45,93.45,0,0,0,93.45,93.45H894.69L542.93,1032.89a85,85,0,0,0,0,120.21h0A85,85,0,0,0,663.13,1153.1Z"/></g></g></svg>