<svg xmlns="http://www.w3.org/2000/svg" viewBox="0 0 74.03 113.78"><defs><style>.cls-1{fill:#a30fe9;}</style></defs><title>Walk</title><g id="Layer_2" data-name="Layer 2"><g id="Layer_4" data-name="Layer 4"><circle class="cls-1" cx="34.51" cy="10.26" r="10.26" transform="translate(-1.3 13.99) rotate(-22.5)"/><path class="cls-1" d="M25.35,22.16a64.91,64.91,0,0,1,7.57-.22,66.44,66.44,0,0,1,6.8.55,10,10,0,0,1,1.76,1,10.38,10.38,0,0,1,3.18,3.62c3.31,4.23,6.59,8.83,9.76,13.82q1,1.59,2,3.18L72,53.1a5.75,5.75,0,0,1,2,3.4,5.19,5.19,0,0,1-.44,3.18A4.92,4.92,0,0,1,71,62.09a5.31,5.31,0,0,1-3.62,0,6.9,6.9,0,0,1-2.63-1.42L52.56,54.08a15.18,15.18,0,0,1-2.85-2.41,16.53,16.53,0,0,1-2.31-3.18,64.63,64.63,0,0,0-6.47-8.89Q39.61,54,38.3,68.45l9.32,11.08A8.65,8.65,0,0,1,50.15,82a12.88,12.88,0,0,1,1.42,3.18c.31.89.52,1.65.66,2.19q3.41,9.56,6.8,19.09a5.36,5.36,0,0,1-.11,3.62,5.26,5.26,0,0,1-2.74,2.85,5,5,0,0,1-6.91-3.51Q46,99.56,42.8,89.74l-9.44-9.55L27.44,91.82a4.31,4.31,0,0,1-.88,2.41,3.78,3.78,0,0,1-1.43,1.1c-1.22.58-6.05,5.34-17.66,18.1a5.53,5.53,0,0,1-3.07.22,5.65,5.65,0,0,1-3.29-2.19A5.93,5.93,0,0,1,0,107.62a6.22,6.22,0,0,1,1.1-3.18L18.66,87.1,25,71.64a14.89,14.89,0,0,1-3.18-4.06,14.7,14.7,0,0,1-1.42-3.95L21.73,38.4l-6.8,5.48-1,19.64a5,5,0,0,1-2.3,3.4,5.06,5.06,0,0,1-4.06.33,6.25,6.25,0,0,1-3.73-3.51l.88-22.38a7.45,7.45,0,0,1,1.42-3.62A7.53,7.53,0,0,1,9,35.43Z"/></g></g></svg>