<svg xmlns="http://www.w3.org/2000/svg" viewBox="0 0 1178 1188.21"><defs><style>.cls-1{fill:#fff;}</style></defs><title>White arrow up</title><g id="Layer_2" data-name="Layer 2"><g id="Layer_3" data-name="Layer 3"><path class="cls-1" d="M1153.1,525.07,652.92,24.9A84.73,84.73,0,0,0,590.65.05c-1,0-2,0-3,0h0l-1.63,0a84.85,84.85,0,0,0-48.17,14.35A94.08,94.08,0,0,0,514,36L24.9,525.07a85,85,0,0,0,0,120.21h0a85,85,0,0,0,120.2,0L494.24,296.14v798.62a93.45,93.45,0,0,0,93.44,93.45h0a93.45,93.45,0,0,0,93.45-93.45V293.52l351.76,351.76a85,85,0,0,0,120.21,0h0A85,85,0,0,0,1153.1,525.07Z"/></g></g></svg>