<svg xmlns="http://www.w3.org/2000/svg" viewBox="0 0 1579.74 1206.19"><defs><style>.cls-1{fill:#8f00f3;}</style></defs><title>Workout arrow</title><g id="Layer_2" data-name="Layer 2"><g id="Layer_11" data-name="Layer 11"><path class="cls-1" d="M1554.85,525.07,1054.67,24.9a85,85,0,0,0-120.2,0h0a85,85,0,0,0,0,120.2L1378.36,589,934.47,1032.89a85,85,0,0,0,0,120.21h0a85,85,0,0,0,120.2,0l500.18-500.18a84.75,84.75,0,0,0,24.8-63.92A84.77,84.77,0,0,0,1554.85,525.07Z"/><path class="cls-1" d="M663.13,1181.29l500.18-500.17a84.72,84.72,0,0,0,24.84-62.27q.06-1.49.06-3h0c0-.55,0-1.1,0-1.64a84.8,84.8,0,0,0-14.35-48.16,94.14,94.14,0,0,0-21.58-23.87L663.13,53.09a85,85,0,0,0-120.2,0h0a85,85,0,0,0,0,120.2L892.06,522.43H93.45A93.45,93.45,0,0,0,0,615.88H0a93.44,93.44,0,0,0,93.45,93.44H894.69L542.93,1061.09a85,85,0,0,0,0,120.2h0A85,85,0,0,0,663.13,1181.29Z"/></g></g></svg>