<svg xmlns="http://www.w3.org/2000/svg" viewBox="0 0 101.92 103.01"><defs><style>.cls-1{fill:#a30fe9;}</style></defs><title>Yoga</title><g id="Layer_2" data-name="Layer 2"><g id="Layer_5" data-name="Layer 5"><circle class="cls-1" cx="61.72" cy="10.42" r="10.42"/><path class="cls-1" d="M10,36.83V10.9A4.63,4.63,0,0,0,8.15,8.07a5,5,0,0,0-3.37-.65,5.17,5.17,0,0,0-3,1A4.92,4.92,0,0,0,0,11.77V44a5.09,5.09,0,0,0,4.33,4.77L24,49.86l1.4,1.25L29,71.33v28.76a4.22,4.22,0,0,0,1.73,2.38,5,5,0,0,0,2.91.54c1.67,0,2.78,0,3.78-.76A4.64,4.64,0,0,0,39,98.91q-.1-22.35-.22-44.7a22.24,22.24,0,0,0,5.08-.54A23.48,23.48,0,0,0,52,50.11a26.87,26.87,0,0,0,6.81-6.48,27.26,27.26,0,0,0,4.42-9.28l32.5,10.8A4.64,4.64,0,0,0,99.28,45c1.69-.87,2.12-2.72,2.37-3.78a5.22,5.22,0,0,0-.1-3.56A5.29,5.29,0,0,0,97.87,35L19.18,8.66a5.62,5.62,0,0,0-4,0A5.48,5.48,0,0,0,13,10.28a4.66,4.66,0,0,0-1.29,2.91,4.9,4.9,0,0,0,1.08,2.92A7.3,7.3,0,0,0,15,18.26a7.46,7.46,0,0,0,2.16,1l30,10a10,10,0,0,1-1.52,2.8,18.28,18.28,0,0,1-2.69,2.49c-2.26,1.87-2.86,2.17-3.46,2.37a6.37,6.37,0,0,1-2.16.32Z"/></g></g></svg>